<svg width="24" height="24" viewBox="0 0 24 24" fill="none" xmlns="http://www.w3.org/2000/svg">
<path d="M10 3.25C9.59 3.25 9.25 3.59 9.25 4V20C9.25 20.41 9.59 20.75 10 20.75C10.41 20.75 10.75 20.41 10.75 20V4C10.75 3.59 10.41 3.25 10 3.25Z" fill="black"/>
<path d="M2.25 7.39V9C2.25 9.92 2.84 10.74 3.71 11.03L4.81 11.4C5.07 11.49 5.25 11.73 5.25 12C5.25 12.27 5.08 12.52 4.82 12.6L3.72 12.97C2.85 13.26 2.26 14.08 2.26 15V16.61C2.26 17.79 3.22 18.75 4.4 18.75H7.76V5.25H4.4C3.22 5.25 2.26 6.21 2.26 7.39H2.25Z" fill="black"/>
<path d="M20.1 11.29L20.57 11.06C21.3 10.7 21.75 9.96 21.75 9.15V7.39C21.75 6.21 20.79 5.25 19.61 5.25H12.25V18.75H19.61C20.79 18.75 21.75 17.79 21.75 16.61V14.85C21.75 14.04 21.3 13.3 20.57 12.94L20.1 12.71C19.88 12.6 19.75 12.38 19.75 12.14V11.85C19.75 11.61 19.88 11.39 20.1 11.28V11.29Z" fill="black"/>
</svg>
