<svg width="28" height="28" viewBox="0 0 28 28" fill="none" xmlns="http://www.w3.org/2000/svg">
<path fill-rule="evenodd" clip-rule="evenodd" d="M13.4163 17.0329L16.6935 13.9995L13.4163 10.9674V17.0329ZM18.643 15.3751L14.394 19.3068C14.0218 19.6521 13.5377 19.833 13.0442 19.833C12.7723 19.833 12.4958 19.777 12.2357 19.6638C11.524 19.3535 11.083 18.6896 11.083 17.9313V10.068C11.083 9.31081 11.524 8.64581 12.2357 8.33664C12.966 8.01581 13.8142 8.15581 14.3952 8.69364L18.643 12.6253C19.0292 12.9811 19.2497 13.4828 19.2497 13.9996C19.2497 14.5176 19.0292 15.0181 18.643 15.3751M13.9997 2.33298C7.56667 2.33298 2.33301 7.56781 2.33301 13.9996C2.33301 20.4326 7.56667 25.6663 13.9997 25.6663C20.4327 25.6663 25.6663 20.4326 25.6663 13.9996C25.6663 7.56781 20.4327 2.33298 13.9997 2.33298" fill="#EF5B5B"/>
<mask id="mask0_2017_6445" style="mask-type:luminance" maskUnits="userSpaceOnUse" x="2" y="2" width="24" height="24">
<path fill-rule="evenodd" clip-rule="evenodd" d="M13.4163 17.0329L16.6935 13.9995L13.4163 10.9674V17.0329ZM18.643 15.3751L14.394 19.3068C14.0218 19.6521 13.5377 19.833 13.0442 19.833C12.7723 19.833 12.4958 19.777 12.2357 19.6638C11.524 19.3535 11.083 18.6896 11.083 17.9313V10.068C11.083 9.31081 11.524 8.64581 12.2357 8.33664C12.966 8.01581 13.8142 8.15581 14.3952 8.69364L18.643 12.6253C19.0292 12.9811 19.2497 13.4828 19.2497 13.9996C19.2497 14.5176 19.0292 15.0181 18.643 15.3751M13.9997 2.33298C7.56667 2.33298 2.33301 7.56781 2.33301 13.9996C2.33301 20.4326 7.56667 25.6663 13.9997 25.6663C20.4327 25.6663 25.6663 20.4326 25.6663 13.9996C25.6663 7.56781 20.4327 2.33298 13.9997 2.33298" fill="white"/>
</mask>
<g mask="url(#mask0_2017_6445)">
<rect width="28" height="28" fill="#EF5B5B"/>
</g>
</svg>
