<svg width="24" height="24" viewBox="0 0 24 24" fill="none" xmlns="http://www.w3.org/2000/svg">
<g clip-path="url(#clip0_18_13113)">
<path d="M21.6019 0.115546C21.3683 0.229125 21.1896 0.410906 21.0782 0.62564C20.9247 0.921609 20.6661 1.1497 20.3639 1.29061L13.1598 4.64995C12.8468 4.79592 12.7114 5.16797 12.8573 5.481C13.0033 5.79403 13.3753 5.92945 13.6884 5.78348L20.9276 2.40778C21.2185 2.27212 21.5462 2.23369 21.8594 2.30405C22.1018 2.35847 22.3633 2.33634 22.6059 2.22319C23.2091 1.94189 23.459 1.21069 23.1423 0.615421C22.8508 0.0672183 22.1603 -0.155954 21.6019 0.115546Z" fill="url(#paint0_linear_18_13113)"/>
<path d="M18.7018 2.06564L13.1598 4.64995C12.8468 4.79592 12.7114 5.16797 12.8573 5.481C13.0033 5.79403 13.3753 5.92945 13.6884 5.78348L19.2304 3.19917L18.7018 2.06564Z" fill="url(#paint1_linear_18_13113)"/>
<path d="M9.93381 9.44428C9.51643 9.6389 9.02035 9.45834 8.82573 9.04097L7.53878 6.28111C7.34415 5.86378 7.52471 5.36765 7.94209 5.17303C8.35942 4.9784 8.85554 5.15897 9.05017 5.57634L10.3371 8.3362C10.5317 8.75358 10.3512 9.24965 9.93381 9.44428Z" fill="url(#paint2_linear_18_13113)"/>
<path d="M11.6749 9.23236C11.2575 9.42698 10.7615 9.24642 10.5668 8.82905L8.82027 5.0835C8.62564 4.66617 8.80621 4.17005 9.22358 3.97542C9.64091 3.7808 10.137 3.96136 10.3317 4.37873L12.0782 8.12428C12.2728 8.54166 12.0923 9.03773 11.6749 9.23236Z" fill="url(#paint3_linear_18_13113)"/>
<path d="M14.6976 7.82283C14.2803 8.01745 13.7842 7.83689 13.5895 7.41952L11.843 3.67397C11.6483 3.25664 11.8289 2.76052 12.2463 2.56589C12.6636 2.37127 13.1597 2.55183 13.3544 2.9692L15.1009 6.71475C15.2955 7.13212 15.1149 7.62825 14.6976 7.82283Z" fill="url(#paint4_linear_18_13113)"/>
<path d="M14.6976 7.82283C14.2803 8.01745 13.7842 7.83689 13.5895 7.41952L11.843 3.67397C11.6483 3.25664 11.8289 2.76052 12.2463 2.56589C12.6636 2.37127 13.1597 2.55183 13.3544 2.9692L15.1009 6.71475C15.2955 7.13212 15.1149 7.62825 14.6976 7.82283Z" fill="url(#paint5_linear_18_13113)"/>
<path d="M13.4315 9.05329C13.0142 9.24792 12.5181 9.06736 12.3235 8.64998L10.0866 3.85308C9.892 3.43575 10.0726 2.93962 10.4899 2.745C10.9073 2.55037 11.4034 2.73094 11.598 3.14831L13.8348 7.94522C14.0295 8.36259 13.8489 8.85867 13.4315 9.05329Z" fill="url(#paint6_linear_18_13113)"/>
<path d="M13.4315 9.05329C13.0142 9.24792 12.5181 9.06736 12.3235 8.64998L10.0866 3.85308C9.892 3.43575 10.0726 2.93962 10.4899 2.745C10.9073 2.55037 11.4034 2.73094 11.598 3.14831L13.8348 7.94522C14.0295 8.36259 13.8489 8.85867 13.4315 9.05329Z" fill="url(#paint7_linear_18_13113)"/>
<path d="M15.9792 6.62526C15.5618 6.81989 15.0658 6.63933 14.8711 6.22195L13.5842 3.46209C13.3896 3.04476 13.5701 2.54864 13.9875 2.35401C14.4048 2.15939 14.901 2.33995 15.0956 2.75733L16.3825 5.51719C16.5771 5.93456 16.3965 6.43064 15.9792 6.62526Z" fill="url(#paint8_linear_18_13113)"/>
<path d="M15.6173 3.87623L14.0962 4.56014L14.8711 6.22195C15.0658 6.63928 15.5618 6.81989 15.9792 6.62526C16.3965 6.43064 16.5771 5.93456 16.3825 5.51719L15.6173 3.87623Z" fill="url(#paint9_linear_18_13113)"/>
<path d="M15.2876 7.12134C15.3807 7.21289 15.4113 7.35065 15.3669 7.47342L15.3662 7.47558C15.253 7.78697 15.0253 8.03512 14.725 8.17505C14.5687 8.24812 14.4034 8.28689 14.2323 8.29134C14.2078 8.73286 13.9467 9.14808 13.5186 9.34767C13.3528 9.42473 13.1769 9.46397 12.9951 9.46397C12.7224 9.46397 12.4622 9.37355 12.2511 9.21539C12.1397 9.3419 12.0025 9.44484 11.8448 9.51834C11.6795 9.5954 11.503 9.63464 11.3213 9.63464C11.0597 9.63464 10.8098 9.55045 10.6031 9.40387C10.4899 9.5362 10.3487 9.64444 10.1861 9.72019C10.0203 9.79725 9.84437 9.83648 9.66259 9.83648C9.18231 9.83648 8.74084 9.55537 8.53811 9.12056L7.31204 6.49115C7.30403 6.47376 7.29643 6.45642 7.28931 6.43903C7.17081 6.15211 7.1641 5.83626 7.2706 5.54264C7.38376 5.23167 7.61143 4.98309 7.91171 4.84317C7.9959 4.80398 8.08281 4.77455 8.17192 4.75542C8.25343 4.73761 8.33678 4.72823 8.42139 4.72734C8.45659 4.29698 8.71454 3.8969 9.13286 3.70223C9.1344 3.70153 9.136 3.70078 9.13754 3.70008C9.38335 3.58678 9.67164 3.61847 9.89551 3.77048C10.3782 4.09819 11.3952 4.77736 12.0215 5.09845L13.6227 5.91951C14.0196 6.12309 14.3943 6.36459 14.7422 6.63989C14.9326 6.7905 15.1147 6.95123 15.2876 7.12134Z" fill="url(#paint10_linear_18_13113)"/>
<path d="M9.93381 9.44428C9.51643 9.6389 9.02035 9.45834 8.82573 9.04097L7.53878 6.28111C7.34415 5.86378 7.52471 5.36765 7.94209 5.17303C8.35942 4.9784 8.85554 5.15897 9.05017 5.57634L10.3371 8.3362C10.5317 8.75358 10.3512 9.24965 9.93381 9.44428Z" fill="url(#paint11_linear_18_13113)"/>
<path d="M11.6749 9.23236C11.2575 9.42698 10.7615 9.24642 10.5668 8.82905L8.82027 5.0835C8.62564 4.66617 8.80621 4.17005 9.22358 3.97542C9.64091 3.7808 10.137 3.96136 10.3317 4.37873L12.0782 8.12428C12.2728 8.54166 12.0923 9.03773 11.6749 9.23236Z" fill="url(#paint12_linear_18_13113)"/>
<path d="M13.8348 7.94522L12.6598 5.4254L12.0218 5.09826C11.4799 4.82044 10.6456 4.27462 10.1179 3.9203L12.3234 8.64998C12.5181 9.06731 13.0141 9.24787 13.4315 9.0533C13.8488 8.85867 14.0294 8.36259 13.8348 7.94522Z" fill="url(#paint13_linear_18_13113)"/>
<path d="M7.28943 6.43884C7.29656 6.45623 7.30415 6.47358 7.31217 6.49097L8.53823 9.12037C8.74092 9.55519 9.18243 9.8363 9.66272 9.8363C9.8445 9.8363 10.0205 9.79711 10.1862 9.72C10.3488 9.64425 10.4901 9.53601 10.6032 9.40369C10.8099 9.55026 11.0599 9.63445 11.3214 9.63445C11.5032 9.63445 11.6796 9.59526 11.8448 9.51815C12.0026 9.44465 12.1398 9.34172 12.2512 9.2152C12.4623 9.37336 12.7225 9.46378 12.9952 9.46378C13.1769 9.46378 13.3529 9.42459 13.5187 9.34748C13.9468 9.14789 14.2079 8.73267 14.2324 8.29115C14.4035 8.2867 14.5687 8.24794 14.7251 8.17486C15.0254 8.03498 15.253 7.78683 15.3662 7.47539L15.367 7.47323C15.4114 7.35047 15.3807 7.2127 15.2877 7.12115C15.1147 6.95104 14.9327 6.79031 14.7425 6.63961C14.6516 6.56765 14.5588 6.49819 14.4643 6.43092H7.28662C7.2877 6.43364 7.28836 6.43626 7.28943 6.43884Z" fill="url(#paint14_linear_18_13113)"/>
<path d="M16.8282 17.8044L16.2815 19.4381C15.7218 21.1113 14.6325 22.4978 13.2375 23.4362C12.6887 23.8054 12.041 24 11.3796 24H6.38185C5.71904 24 5.07015 23.8044 4.52054 23.434C4.45355 23.3888 4.38723 23.3426 4.3217 23.2955C3.02368 22.361 2.01296 21.0293 1.48041 19.4381L0.934273 17.8044C0.787695 17.3688 0.719727 16.9302 0.719727 16.5017C0.719727 15.2723 1.28359 14.1273 2.19563 13.3655C3.09938 12.6113 3.41621 11.3618 2.9859 10.2659L14.776 10.2653C14.3439 11.3652 14.6714 12.6124 15.5758 13.3731C16.7993 14.4015 17.3909 16.121 16.8282 17.8044Z" fill="url(#paint15_linear_18_13113)"/>
<path d="M0.719727 16.5016C0.719727 16.9302 0.787695 17.3687 0.934273 17.8043L1.48041 19.4381C2.01296 21.0293 3.02373 22.3609 4.3217 23.2954C4.38723 23.3426 4.45351 23.3888 4.52054 23.4339C5.0702 23.8044 5.71909 24 6.3819 24H11.3796C12.041 24 12.6887 23.8054 13.2375 23.4362C14.6325 22.4978 15.7218 21.1113 16.2815 19.4381L16.8282 17.8044C17.0127 17.2524 17.0724 16.6967 17.0271 16.1626H0.735711C0.726195 16.2748 0.719727 16.3877 0.719727 16.5016Z" fill="url(#paint16_linear_18_13113)"/>
<path d="M15.5757 13.3731C14.6713 12.6124 14.3439 11.3652 14.7759 10.2653L7.26318 10.2656V24H11.3795C12.0409 24 12.6886 23.8054 13.2374 23.4362C14.6324 22.4978 15.7218 21.1113 16.2814 19.4381L16.8282 17.8044C17.3909 16.121 16.7992 14.4015 15.5757 13.3731Z" fill="url(#paint17_linear_18_13113)"/>
<path d="M2.19571 13.3654C1.52826 13.923 1.04765 14.6858 0.837646 15.5366H16.9241C16.7151 14.6899 16.2384 13.9301 15.5758 13.3731C14.6715 12.6124 14.3441 11.3652 14.7761 10.2653L2.98597 10.2658C3.41629 11.3617 3.09946 12.6112 2.19571 13.3654Z" fill="url(#paint18_linear_18_13113)"/>
<path d="M16.2815 19.4381L16.8283 17.8043C17.391 16.121 16.7993 14.4015 15.5758 13.3731C14.6714 12.6123 14.344 11.3652 14.776 10.2652L4.01758 10.2658V11.7783L14.5571 22.3178C15.318 21.512 15.914 20.5369 16.2815 19.4381Z" fill="url(#paint19_linear_18_13113)"/>
<path d="M10.9177 13.4437V16.556L9.83228 17.5929L14.5572 22.3178C15.3181 21.512 15.9141 20.5369 16.2816 19.4381L16.4397 18.9657L10.9177 13.4437Z" fill="url(#paint20_linear_18_13113)"/>
<path d="M14.6614 10.8761H3.10063C2.65077 10.8761 2.28613 10.5114 2.28613 10.0616C2.28613 9.61177 2.65082 9.24713 3.10063 9.24713H14.6614C15.1112 9.24713 15.4759 9.61181 15.4759 10.0616C15.4759 10.5115 15.1112 10.8761 14.6614 10.8761Z" fill="url(#paint21_linear_18_13113)"/>
<path d="M10.0093 9.24713H13.4759V10.8761H10.0093V9.24713Z" fill="url(#paint22_linear_18_13113)"/>
<path d="M7.09814 9.24713H10.5648V10.8761H7.09814V9.24713Z" fill="url(#paint23_linear_18_13113)"/>
<path d="M10.7621 10.21V11.8487C10.7303 12.2821 10.3693 12.6174 9.93494 12.6174C9.70628 12.6174 9.49867 12.5248 9.34858 12.3743C9.19849 12.2246 9.10591 12.017 9.10591 11.7879V10.5675C9.10591 10.2266 8.82958 9.95077 8.48917 9.95077C8.3185 9.95077 8.16466 10.0195 8.05291 10.1312C7.94163 10.243 7.87244 10.3973 7.87244 10.5675C7.87244 10.5815 7.87197 10.5956 7.87056 10.6096C7.86077 10.7536 7.79763 10.8836 7.7013 10.9799C7.59564 11.0856 7.44972 11.1506 7.28889 11.1506H6.63513C6.31296 11.1506 6.02069 11.34 5.88883 11.634C5.82292 11.7813 5.71675 11.902 5.58724 11.9861C5.45725 12.0703 5.30341 12.1175 5.14258 12.1175H4.81525C4.14147 12.1175 3.6243 11.5209 3.71969 10.8541C3.72297 10.8302 3.72485 10.8068 3.72485 10.783C3.72485 10.7232 3.71411 10.6643 3.69353 10.6095C3.64816 10.488 3.55652 10.3851 3.43263 10.3285C3.247 10.2434 3.13989 10.0615 3.13989 9.87263C3.13989 9.78891 3.16094 9.70383 3.20538 9.62574C3.2066 9.62353 3.20786 9.62138 3.20908 9.61917C3.43436 9.22266 3.85811 8.98045 4.31416 8.98045H9.53261C10.2116 8.9805 10.7621 9.53095 10.7621 10.21Z" fill="url(#paint24_linear_18_13113)"/>
<path d="M9.53268 8.9805H7.87598V10.5022C7.89121 10.358 7.95609 10.2285 8.05293 10.1312C8.16468 10.0195 8.31852 9.95077 8.4892 9.95077C8.8296 9.95077 9.10593 10.2266 9.10593 10.5675V11.7879C9.10593 12.017 9.19851 12.2246 9.3486 12.3742C9.4987 12.5248 9.7063 12.6174 9.93496 12.6174C10.3694 12.6174 10.7303 12.2821 10.7621 11.8487V10.21C10.7622 9.53095 10.2117 8.9805 9.53268 8.9805Z" fill="url(#paint25_linear_18_13113)"/>
<path d="M11.6167 15.4903C11.2368 15.0154 11.0286 14.1407 10.9177 13.4437C10.8966 13.3108 10.7048 13.3108 10.6837 13.4437C10.5729 14.1407 10.3647 15.0154 9.98469 15.4903C8.86025 16.8959 9.73086 17.9534 10.8007 17.9534C11.8706 17.9534 12.7412 16.8959 11.6167 15.4903Z" fill="url(#paint26_linear_18_13113)"/>
<path d="M10.9177 13.4437C10.9066 13.3741 10.8488 13.341 10.7932 13.3442V17.9533C10.7957 17.9533 10.7981 17.9534 10.8006 17.9534C11.8704 17.9534 12.7411 16.8958 11.6167 15.4903C11.2367 15.0153 11.0284 14.1407 10.9177 13.4437Z" fill="url(#paint27_linear_18_13113)"/>
<path d="M10.8007 17.9534C11.7264 17.9534 12.5026 17.1615 11.9667 16.0377H9.63473C9.09876 17.1615 9.87501 17.9534 10.8007 17.9534Z" fill="url(#paint28_linear_18_13113)"/>
</g>
<defs>
<linearGradient id="paint0_linear_18_13113" x1="17.6441" y1="2.28337" x2="18.2813" y2="3.64798" gradientUnits="userSpaceOnUse">
<stop stop-color="#F89580"/>
<stop offset="1" stop-color="#C4573A"/>
</linearGradient>
<linearGradient id="paint1_linear_18_13113" x1="16.762" y1="3.32018" x2="15.8642" y2="4.2184" gradientUnits="userSpaceOnUse">
<stop stop-color="#C4573A" stop-opacity="0"/>
<stop offset="0.235" stop-color="#BE5539" stop-opacity="0.235"/>
<stop offset="0.539" stop-color="#AE4E35" stop-opacity="0.539"/>
<stop offset="0.8794" stop-color="#934330" stop-opacity="0.879"/>
<stop offset="1" stop-color="#883F2E"/>
</linearGradient>
<linearGradient id="paint2_linear_18_13113" x1="8.21497" y1="7.64146" x2="9.57596" y2="7.00603" gradientUnits="userSpaceOnUse">
<stop stop-color="#F89580"/>
<stop offset="1" stop-color="#C4573A"/>
</linearGradient>
<linearGradient id="paint3_linear_18_13113" x1="9.72577" y1="6.93605" x2="11.0867" y2="6.30064" gradientUnits="userSpaceOnUse">
<stop stop-color="#F89580"/>
<stop offset="1" stop-color="#C4573A"/>
</linearGradient>
<linearGradient id="paint4_linear_18_13113" x1="12.7474" y1="5.52526" x2="14.1084" y2="4.88985" gradientUnits="userSpaceOnUse">
<stop stop-color="#F89580"/>
<stop offset="1" stop-color="#C4573A"/>
</linearGradient>
<linearGradient id="paint5_linear_18_13113" x1="13.5636" y1="4.91958" x2="13.2525" y2="5.85291" gradientUnits="userSpaceOnUse">
<stop stop-color="#C4573A" stop-opacity="0"/>
<stop offset="0.235" stop-color="#BE5539" stop-opacity="0.235"/>
<stop offset="0.539" stop-color="#AE4E35" stop-opacity="0.539"/>
<stop offset="0.8794" stop-color="#934330" stop-opacity="0.879"/>
<stop offset="1" stop-color="#883F2E"/>
</linearGradient>
<linearGradient id="paint6_linear_18_13113" x1="11.2367" y1="6.23067" x2="12.5977" y2="5.59524" gradientUnits="userSpaceOnUse">
<stop stop-color="#F89580"/>
<stop offset="1" stop-color="#C4573A"/>
</linearGradient>
<linearGradient id="paint7_linear_18_13113" x1="12.499" y1="4.40854" x2="12.2101" y2="5.20851" gradientUnits="userSpaceOnUse">
<stop stop-color="#C4573A" stop-opacity="0"/>
<stop offset="0.235" stop-color="#BE5539" stop-opacity="0.235"/>
<stop offset="0.539" stop-color="#AE4E35" stop-opacity="0.539"/>
<stop offset="0.8794" stop-color="#934330" stop-opacity="0.879"/>
<stop offset="1" stop-color="#883F2E"/>
</linearGradient>
<linearGradient id="paint8_linear_18_13113" x1="14.2583" y1="4.81988" x2="15.6193" y2="4.18445" gradientUnits="userSpaceOnUse">
<stop stop-color="#F89580"/>
<stop offset="1" stop-color="#C4573A"/>
</linearGradient>
<linearGradient id="paint9_linear_18_13113" x1="15.2528" y1="5.43642" x2="15.0973" y2="6.6142" gradientUnits="userSpaceOnUse">
<stop stop-color="#C4573A" stop-opacity="0"/>
<stop offset="0.235" stop-color="#BE5539" stop-opacity="0.235"/>
<stop offset="0.539" stop-color="#AE4E35" stop-opacity="0.539"/>
<stop offset="0.8794" stop-color="#934330" stop-opacity="0.879"/>
<stop offset="1" stop-color="#883F2E"/>
</linearGradient>
<linearGradient id="paint10_linear_18_13113" x1="10.5578" y1="4.34105" x2="12.1133" y2="9.40772" gradientUnits="userSpaceOnUse">
<stop stop-color="#FEF0AE"/>
<stop offset="1" stop-color="#FAC600"/>
</linearGradient>
<linearGradient id="paint11_linear_18_13113" x1="8.50346" y1="7.86267" x2="10.2812" y2="5.59598" gradientUnits="userSpaceOnUse">
<stop stop-color="#FE9738" stop-opacity="0"/>
<stop offset="1" stop-color="#FE9738"/>
</linearGradient>
<linearGradient id="paint12_linear_18_13113" x1="10.6346" y1="5.99376" x2="11.168" y2="4.23825" gradientUnits="userSpaceOnUse">
<stop stop-color="#FE9738" stop-opacity="0"/>
<stop offset="1" stop-color="#FE9738"/>
</linearGradient>
<linearGradient id="paint13_linear_18_13113" x1="11.8055" y1="6.62306" x2="12.6721" y2="4.91198" gradientUnits="userSpaceOnUse">
<stop stop-color="#FE9738" stop-opacity="0"/>
<stop offset="1" stop-color="#FE9738"/>
</linearGradient>
<linearGradient id="paint14_linear_18_13113" x1="11.3368" y1="8.1644" x2="11.3368" y2="9.3644" gradientUnits="userSpaceOnUse">
<stop stop-color="#FE9738" stop-opacity="0"/>
<stop offset="1" stop-color="#FE9738"/>
</linearGradient>
<linearGradient id="paint15_linear_18_13113" x1="3.9767" y1="17.1326" x2="14.2666" y2="17.1326" gradientUnits="userSpaceOnUse">
<stop stop-color="#F89580"/>
<stop offset="1" stop-color="#C4573A"/>
</linearGradient>
<linearGradient id="paint16_linear_18_13113" x1="8.88066" y1="21.0293" x2="8.88066" y2="23.9803" gradientUnits="userSpaceOnUse">
<stop stop-color="#C4573A" stop-opacity="0"/>
<stop offset="0.235" stop-color="#BE5539" stop-opacity="0.235"/>
<stop offset="0.539" stop-color="#AE4E35" stop-opacity="0.539"/>
<stop offset="0.8794" stop-color="#934330" stop-opacity="0.879"/>
<stop offset="1" stop-color="#883F2E"/>
</linearGradient>
<linearGradient id="paint17_linear_18_13113" x1="10.8267" y1="17.0731" x2="15.9462" y2="18.6532" gradientUnits="userSpaceOnUse">
<stop stop-color="#C4573A" stop-opacity="0"/>
<stop offset="0.235" stop-color="#BE5539" stop-opacity="0.235"/>
<stop offset="0.539" stop-color="#AE4E35" stop-opacity="0.539"/>
<stop offset="0.8794" stop-color="#934330" stop-opacity="0.879"/>
<stop offset="1" stop-color="#883F2E"/>
</linearGradient>
<linearGradient id="paint18_linear_18_13113" x1="8.97848" y1="13.6506" x2="9.12848" y2="10.7505" gradientUnits="userSpaceOnUse">
<stop stop-color="#C4573A" stop-opacity="0"/>
<stop offset="0.235" stop-color="#BE5539" stop-opacity="0.235"/>
<stop offset="0.539" stop-color="#AE4E35" stop-opacity="0.539"/>
<stop offset="0.8794" stop-color="#934330" stop-opacity="0.879"/>
<stop offset="1" stop-color="#883F2E"/>
</linearGradient>
<linearGradient id="paint19_linear_18_13113" x1="11.0099" y1="13.779" x2="7.91898" y2="8.49553" gradientUnits="userSpaceOnUse">
<stop stop-color="#C4573A" stop-opacity="0"/>
<stop offset="0.235" stop-color="#BE5539" stop-opacity="0.235"/>
<stop offset="0.539" stop-color="#AE4E35" stop-opacity="0.539"/>
<stop offset="0.8794" stop-color="#934330" stop-opacity="0.879"/>
<stop offset="1" stop-color="#883F2E"/>
</linearGradient>
<linearGradient id="paint20_linear_18_13113" x1="13.1081" y1="18.0364" x2="9.25815" y2="16.4198" gradientUnits="userSpaceOnUse">
<stop stop-color="#C4573A" stop-opacity="0"/>
<stop offset="0.235" stop-color="#BE5539" stop-opacity="0.235"/>
<stop offset="0.539" stop-color="#AE4E35" stop-opacity="0.539"/>
<stop offset="0.8794" stop-color="#934330" stop-opacity="0.879"/>
<stop offset="1" stop-color="#883F2E"/>
</linearGradient>
<linearGradient id="paint21_linear_18_13113" x1="8.88102" y1="9.45732" x2="8.88102" y2="10.5083" gradientUnits="userSpaceOnUse">
<stop stop-color="#F89580"/>
<stop offset="1" stop-color="#C4573A"/>
</linearGradient>
<linearGradient id="paint22_linear_18_13113" x1="11.526" y1="10.0926" x2="10.5927" y2="10.2259" gradientUnits="userSpaceOnUse">
<stop stop-color="#C4573A" stop-opacity="0"/>
<stop offset="0.235" stop-color="#BE5539" stop-opacity="0.235"/>
<stop offset="0.539" stop-color="#AE4E35" stop-opacity="0.539"/>
<stop offset="0.8794" stop-color="#934330" stop-opacity="0.879"/>
<stop offset="1" stop-color="#883F2E"/>
</linearGradient>
<linearGradient id="paint23_linear_18_13113" x1="9.45357" y1="10.5514" x2="8.4091" y2="9.72914" gradientUnits="userSpaceOnUse">
<stop stop-color="#C4573A" stop-opacity="0"/>
<stop offset="0.235" stop-color="#BE5539" stop-opacity="0.235"/>
<stop offset="0.539" stop-color="#AE4E35" stop-opacity="0.539"/>
<stop offset="0.8794" stop-color="#934330" stop-opacity="0.879"/>
<stop offset="1" stop-color="#883F2E"/>
</linearGradient>
<linearGradient id="paint24_linear_18_13113" x1="6.81114" y1="9.26808" x2="7.3667" y2="12.2014" gradientUnits="userSpaceOnUse">
<stop stop-color="#FEF0AE"/>
<stop offset="1" stop-color="#FAC600"/>
</linearGradient>
<linearGradient id="paint25_linear_18_13113" x1="9.78707" y1="10.799" x2="10.84" y2="10.799" gradientUnits="userSpaceOnUse">
<stop stop-color="#FE9738" stop-opacity="0"/>
<stop offset="1" stop-color="#FE9738"/>
</linearGradient>
<linearGradient id="paint26_linear_18_13113" x1="9.9598" y1="15.6487" x2="11.3392" y2="15.6487" gradientUnits="userSpaceOnUse">
<stop stop-color="#FEF0AE"/>
<stop offset="1" stop-color="#FAC600"/>
</linearGradient>
<linearGradient id="paint27_linear_18_13113" x1="11.0814" y1="15.7203" x2="12.4249" y2="16.0687" gradientUnits="userSpaceOnUse">
<stop stop-color="#FE9738" stop-opacity="0"/>
<stop offset="1" stop-color="#FE9738"/>
</linearGradient>
<linearGradient id="paint28_linear_18_13113" x1="10.7861" y1="16.6259" x2="10.9354" y2="17.8326" gradientUnits="userSpaceOnUse">
<stop stop-color="#FE9738" stop-opacity="0"/>
<stop offset="1" stop-color="#FE9738"/>
</linearGradient>
<clipPath id="clip0_18_13113">
<rect width="24" height="24" fill="white"/>
</clipPath>
</defs>
</svg>
