<svg width="24" height="24" viewBox="0 0 24 24" fill="none" xmlns="http://www.w3.org/2000/svg">
<path d="M18.72 7.77C18.41 4.69 15.66 2.27 12.43 2.25C9.21002 2.27 6.45002 4.69 6.15002 7.77C5.92002 10.06 7.10002 12.35 9.15002 13.61C9.44002 13.79 9.61002 14.07 9.61002 14.36V14.78C9.61002 15.17 9.78002 15.54 10.07 15.79C10.36 16.05 10.75 16.16 11.21 16.11L11.65 16.01C11.98 15.89 12.21 15.87 12.24 15.88C12.28 15.9 12.32 15.92 12.36 15.94C12.51 16.02 12.71 16.13 13.05 16.21C13.17 16.23 13.29 16.25 13.41 16.25C13.83 16.25 14.24 16.1 14.57 15.83C15.01 15.47 15.26 14.93 15.26 14.36C15.26 14.07 15.43 13.78 15.72 13.61C17.77 12.36 18.95 10.07 18.72 7.77Z" fill="#231F20"/>
<path d="M15.71 17.9L14.57 17.14V16.98C14.2 17.15 13.81 17.24 13.4 17.24C13.22 17.24 13.03 17.22 12.84 17.18C12.48 17.1 12.23 17 12.05 16.91C12.02 16.91 11.91 16.96 11.91 16.96L11.37 17.09H11.32C11.2 17.11 11.08 17.12 10.97 17.12C10.73 17.12 10.51 17.08 10.29 17.02V17.13L9.14996 17.89C8.55996 18.28 8.20996 18.93 8.20996 19.64C8.20996 20.8 9.14996 21.74 10.31 21.74H10.47C11.02 21.74 11.57 21.51 11.99 21.09C12.23 20.86 12.61 20.86 12.87 21.12C13.26 21.51 13.8 21.74 14.36 21.74H14.52C15.68 21.74 16.62 20.8 16.62 19.64C16.62 18.93 16.27 18.28 15.68 17.89L15.71 17.9Z" fill="#231F20"/>
</svg>
