<svg width="24" height="24" viewBox="0 0 24 24" fill="none" xmlns="http://www.w3.org/2000/svg">
<path d="M11.5 9.29001C12.9 9.29001 14.04 8.18001 14.04 6.81001C14.04 5.56001 13.09 4.53001 11.86 4.36001C11.86 4.32001 11.86 4.27001 11.87 4.23001C11.94 3.98001 12.13 3.70001 12.47 3.74001C12.88 3.80001 13.26 3.51001 13.32 3.10001C13.38 2.69001 13.09 2.31001 12.68 2.25001C11.66 2.11001 10.7 2.77001 10.42 3.83001C10.35 4.10001 10.33 4.36001 10.33 4.60001C9.51996 5.01001 8.95996 5.83001 8.95996 6.79001C8.95996 8.16001 10.1 9.27001 11.5 9.27001V9.29001Z" fill="#231F20"/>
<path d="M16.6699 17.73C16.1099 17.67 15.5899 17.51 15.1099 17.26C14.5699 17.55 13.9299 17.7 13.2599 17.7C12.6299 17.7 12.0199 17.56 11.4899 17.3C10.9699 17.56 10.3599 17.7 9.72992 17.7C9.05992 17.7 8.42992 17.55 7.87992 17.26C7.40992 17.51 6.89992 17.67 6.36992 17.72C6.22992 17.73 6.09992 17.74 5.95992 17.74C5.50992 17.74 5.07992 17.65 4.66992 17.5V17.54C4.73992 18.35 4.89992 19.17 5.12992 19.97C5.43992 21.02 6.62992 21.75 8.02992 21.75H14.9499C16.3499 21.75 17.5399 21.02 17.8499 19.97C18.0799 19.17 18.2399 18.35 18.3099 17.54V17.51C17.8999 17.66 17.4699 17.75 17.0299 17.75C16.9099 17.75 16.7899 17.75 16.6599 17.73H16.6699Z" fill="#231F20"/>
<path d="M19.7099 13.73L19.4599 12.41C19.2599 11.33 18.8699 10.38 18.2999 9.59001C17.4799 8.45001 16.3399 7.57001 15.0199 6.99001C14.9299 8.83001 13.3899 10.3 11.4999 10.3C9.6099 10.3 8.0699 8.83001 7.9799 6.99001C6.6499 7.57001 5.5199 8.46001 4.6999 9.59001C4.1299 10.38 3.7399 11.32 3.5399 12.41L3.2899 13.73C3.1499 14.49 3.3799 15.27 3.9199 15.87C4.4999 16.5 5.3599 16.83 6.2699 16.74C6.9799 16.66 7.5199 16.37 7.8999 16.07C8.8499 16.9 10.5199 16.92 11.4999 16.12C12.4799 16.92 14.1499 16.9 15.0999 16.07C15.4899 16.37 16.0399 16.66 16.7599 16.74C16.8499 16.74 16.9399 16.75 17.0299 16.75C17.7999 16.75 18.5499 16.43 19.0699 15.86C19.6099 15.27 19.8499 14.49 19.6999 13.72L19.7099 13.73Z" fill="#231F20"/>
</svg>
