<svg width="24" height="24" viewBox="0 0 24 24" fill="none" xmlns="http://www.w3.org/2000/svg">
<path d="M17 10.25H7.75V8C7.75 5.66 9.66 3.75 12 3.75C14.34 3.75 16.25 5.66 16.25 8C16.25 8.41 16.59 8.75 17 8.75C17.41 8.75 17.75 8.41 17.75 8C17.75 4.83 15.17 2.25 12 2.25C8.83 2.25 6.25 4.83 6.25 8V10.43C5.66 10.71 5.25 11.31 5.25 12V17C5.25 19.62 7.38 21.75 10 21.75H14C16.62 21.75 18.75 19.62 18.75 17V12C18.75 11.04 17.96 10.25 17 10.25ZM17.25 17C17.25 18.79 15.79 20.25 14 20.25H10C8.21 20.25 6.75 18.79 6.75 17V12C6.75 11.86 6.86 11.75 7 11.75H17C17.14 11.75 17.25 11.86 17.25 12V17Z" fill="black"/>
<path d="M12.75 15.43V14C12.75 13.59 12.41 13.25 12 13.25C11.59 13.25 11.25 13.59 11.25 14V15.43C10.66 15.71 10.25 16.31 10.25 17C10.25 17.96 11.04 18.75 12 18.75C12.96 18.75 13.75 17.96 13.75 17C13.75 16.3 13.34 15.71 12.75 15.43Z" fill="black"/>
</svg>
